# xmcd
#
# Track frame offsets: 
#        150
#        16429
#        38655
#        60291
#        77485
#        113405
#        136944
#        155365
#        177793
#        193644
#
# Disc length: 2821 seconds
#
# Revision: 0
# Processed by: cddbd v1.5.2PL0 Copyright (c) Steve Scherf et al.
# Submitted via: ExactAudioCopy v1.2
#
DISCID=6a0b030a
DTITLE=Fabrizio Poggi - Fabrizio Poggi and the Amazing Texas Blues Voi
DTITLE=ces
DYEAR=2016
DGENRE=Blues
TTITLE0=Nobody's Fault But Mine (Feat. Carolyn Wonderland)
TTITLE1=Walk On (Feat. Ruthie Foster)
TTITLE2=Forty Days And Forty Nights (Feat. Mike Zitto)
TTITLE3=Rough Edges (Feat. W.C. Clark)
TTITLE4=Mississippi, My Home (Feat. Lavelle White)
TTITLE5=Neighbor Neighbor (Feat. Bobby Mack)
TTITLE6=Many In Body (Feat. Mike Cross)
TTITLE7=Welcome Home (Feat. Shelley King)
TTITLE8=Wishin' Well (Feat. Mike Cross)
TTITLE9=Run On (Feat. Guy Forsyth)
EXTD=
EXTT0=
EXTT1=
EXTT2=
EXTT3=
EXTT4=
EXTT5=
EXTT6=
EXTT7=
EXTT8=
EXTT9=
PLAYORDER=
